<svg width="50" height="50" viewBox="0 0 50 50" fill="none" xmlns="http://www.w3.org/2000/svg">
<path d="M0.5 25C0.5 38.531 11.469 49.5 25 49.5C38.531 49.5 49.5 38.531 49.5 25C49.5 11.469 38.531 0.5 25 0.5C11.469 0.5 0.5 11.469 0.5 25Z" fill="#222222" stroke="#606060"/>
<path d="M23.2 30.3833L26.0083 27.5833L28.8167 24.7833C28.8833 24.7167 28.9304 24.6444 28.958 24.5667C28.986 24.4889 29 24.4055 29 24.3167C29 24.2278 28.986 24.1444 28.958 24.0667C28.9304 23.9889 28.8833 23.9166 28.8167 23.85L23.2 18.2334C23.0444 18.0778 22.85 18 22.6167 18C22.3833 18 22.1833 18.0833 22.0167 18.25C21.85 18.4167 21.7667 18.6112 21.7667 18.8334C21.7667 19.0556 21.85 19.2501 22.0167 19.4167L26.9167 24.3167L22.0167 29.2167C21.8611 29.3722 21.7833 29.5638 21.7833 29.7914C21.7833 30.0194 21.8667 30.2166 22.0333 30.3833C22.2 30.55 22.3944 30.6333 22.6167 30.6333C22.8389 30.6333 23.0333 30.55 23.2 30.3833Z" fill="#D9D9D9"/>
</svg>
