<svg width="50" height="50" viewBox="0 0 50 50" fill="none" xmlns="http://www.w3.org/2000/svg">
<path d="M49.5 25C49.5 38.531 38.531 49.5 25 49.5C11.469 49.5 0.5 38.531 0.5 25C0.5 11.469 11.469 0.5 25 0.5C38.531 0.5 49.5 11.469 49.5 25Z" fill="#222222" stroke="#606060"/>
<path d="M26.8 30.3833L23.9917 27.5833L21.1833 24.7833C21.1167 24.7167 21.0696 24.6444 21.042 24.5667C21.014 24.4889 21 24.4055 21 24.3167C21 24.2278 21.014 24.1444 21.042 24.0667C21.0696 23.9889 21.1167 23.9166 21.1833 23.85L26.8 18.2334C26.9556 18.0778 27.15 18 27.3833 18C27.6167 18 27.8167 18.0833 27.9833 18.25C28.15 18.4167 28.2333 18.6112 28.2333 18.8334C28.2333 19.0556 28.15 19.2501 27.9833 19.4167L23.0833 24.3167L27.9833 29.2167C28.1389 29.3722 28.2167 29.5638 28.2167 29.7914C28.2167 30.0194 28.1333 30.2166 27.9667 30.3833C27.8 30.55 27.6056 30.6333 27.3833 30.6333C27.1611 30.6333 26.9667 30.55 26.8 30.3833Z" fill="#D9D9D9"/>
</svg>
