<svg width="38" height="37" viewBox="0 0 38 37" fill="none" xmlns="http://www.w3.org/2000/svg">
<rect x="0.799805" width="36.8" height="36.8" rx="18.4" fill="#83000A"/>
<path d="M18.1555 15.9495V17.0511H17.3491V18.3975H18.1555V22.3999H19.8131V18.3975H20.9251C20.9251 18.3975 21.0299 17.7519 21.0803 17.0455H19.8195V16.1255C19.8195 15.9871 20.0003 15.8023 20.1795 15.8023H21.0819V14.3999H19.8539C18.1147 14.3999 18.1555 15.7479 18.1555 15.9495Z" fill="white"/>
<path d="M14.3997 11.9999C13.9754 11.9999 13.5684 12.1685 13.2683 12.4685C12.9683 12.7686 12.7997 13.1756 12.7997 13.5999V23.1999C12.7997 23.6242 12.9683 24.0312 13.2683 24.3313C13.5684 24.6313 13.9754 24.7999 14.3997 24.7999H23.9997C24.4241 24.7999 24.831 24.6313 25.1311 24.3313C25.4311 24.0312 25.5997 23.6242 25.5997 23.1999V13.5999C25.5997 13.1756 25.4311 12.7686 25.1311 12.4685C24.831 12.1685 24.4241 11.9999 23.9997 11.9999H14.3997ZM14.3997 10.3999H23.9997C24.8484 10.3999 25.6623 10.737 26.2624 11.3372C26.8626 11.9373 27.1997 12.7512 27.1997 13.5999V23.1999C27.1997 24.0486 26.8626 24.8625 26.2624 25.4626C25.6623 26.0628 24.8484 26.3999 23.9997 26.3999H14.3997C13.551 26.3999 12.7371 26.0628 12.137 25.4626C11.5368 24.8625 11.1997 24.0486 11.1997 23.1999V13.5999C11.1997 12.7512 11.5368 11.9373 12.137 11.3372C12.7371 10.737 13.551 10.3999 14.3997 10.3999Z" fill="white"/>
</svg>
