<svg width="38" height="37" viewBox="0 0 38 37" fill="none" xmlns="http://www.w3.org/2000/svg">
<rect x="0.599609" width="36.8" height="36.8" rx="18.4" fill="#83000A"/>
<path d="M18.9995 15.9999C18.363 15.9999 17.7525 16.2528 17.3025 16.7028C16.8524 17.1529 16.5995 17.7634 16.5995 18.3999C16.5995 19.0364 16.8524 19.6469 17.3025 20.097C17.7525 20.547 18.363 20.7999 18.9995 20.7999C19.636 20.7999 20.2465 20.547 20.6966 20.097C21.1467 19.6469 21.3995 19.0364 21.3995 18.3999C21.3995 17.7634 21.1467 17.1529 20.6966 16.7028C20.2465 16.2528 19.636 15.9999 18.9995 15.9999ZM18.9995 14.3999C20.0604 14.3999 21.0778 14.8213 21.8279 15.5715C22.5781 16.3216 22.9995 17.339 22.9995 18.3999C22.9995 19.4608 22.5781 20.4782 21.8279 21.2283C21.0778 21.9785 20.0604 22.3999 18.9995 22.3999C17.9386 22.3999 16.9212 21.9785 16.1711 21.2283C15.4209 20.4782 14.9995 19.4608 14.9995 18.3999C14.9995 17.339 15.4209 16.3216 16.1711 15.5715C16.9212 14.8213 17.9386 14.3999 18.9995 14.3999ZM24.1995 14.1999C24.1995 14.4651 24.0942 14.7195 23.9066 14.907C23.7191 15.0945 23.4647 15.1999 23.1995 15.1999C22.9343 15.1999 22.6799 15.0945 22.4924 14.907C22.3049 14.7195 22.1995 14.4651 22.1995 14.1999C22.1995 13.9347 22.3049 13.6803 22.4924 13.4928C22.6799 13.3053 22.9343 13.1999 23.1995 13.1999C23.4647 13.1999 23.7191 13.3053 23.9066 13.4928C24.0942 13.6803 24.1995 13.9347 24.1995 14.1999ZM18.9995 11.9999C17.0203 11.9999 16.6971 12.0055 15.7763 12.0463C15.1491 12.0759 14.7283 12.1599 14.3379 12.3119C14.0112 12.4319 13.7158 12.6241 13.4739 12.8743C13.2235 13.1162 13.031 13.4116 12.9107 13.7383C12.7587 14.1303 12.6747 14.5503 12.6459 15.1767C12.6043 16.0599 12.5995 16.3687 12.5995 18.3999C12.5995 20.3791 12.6051 20.7023 12.6459 21.6231C12.6755 22.2495 12.7595 22.6711 12.9107 23.0607C13.0467 23.4087 13.2067 23.6591 13.4723 23.9247C13.7419 24.1935 13.9923 24.3543 14.3363 24.4871C14.7315 24.6399 15.1523 24.7247 15.7763 24.7535C16.6595 24.7951 16.9683 24.7999 18.9995 24.7999C20.9787 24.7999 21.3019 24.7943 22.2227 24.7535C22.8483 24.7239 23.2699 24.6399 23.6603 24.4887C23.9865 24.3682 24.2817 24.1763 24.5243 23.9271C24.7939 23.6575 24.9547 23.4071 25.0875 23.0631C25.2395 22.6687 25.3243 22.2471 25.3531 21.6231C25.3947 20.7399 25.3995 20.4311 25.3995 18.3999C25.3995 16.4207 25.3939 16.0975 25.3531 15.1767C25.3235 14.5511 25.2395 14.1287 25.0875 13.7383C24.9669 13.4119 24.7748 13.1167 24.5251 12.8743C24.2833 12.6238 23.9879 12.4312 23.6611 12.3111C23.2691 12.1591 22.8483 12.0751 22.2227 12.0463C21.3395 12.0047 21.0307 11.9999 18.9995 11.9999ZM18.9995 10.3999C21.1731 10.3999 21.4443 10.4079 22.2971 10.4479C23.1491 10.4879 23.7291 10.6215 24.2395 10.8199C24.7675 11.0231 25.2123 11.2983 25.6571 11.7423C26.0639 12.1422 26.3787 12.626 26.5795 13.1599C26.7771 13.6695 26.9115 14.2503 26.9515 15.1023C26.9891 15.9551 26.9995 16.2263 26.9995 18.3999C26.9995 20.5735 26.9915 20.8447 26.9515 21.6975C26.9115 22.5495 26.7771 23.1295 26.5795 23.6399C26.3793 24.1741 26.0644 24.658 25.6571 25.0575C25.2571 25.4642 24.7734 25.7789 24.2395 25.9799C23.7299 26.1775 23.1491 26.3119 22.2971 26.3519C21.4443 26.3895 21.1731 26.3999 18.9995 26.3999C16.8259 26.3999 16.5547 26.3919 15.7019 26.3519C14.8499 26.3119 14.2699 26.1775 13.7595 25.9799C13.2254 25.7795 12.7415 25.4647 12.3419 25.0575C11.935 24.6577 11.6203 24.1739 11.4195 23.6399C11.2211 23.1303 11.0875 22.5495 11.0475 21.6975C11.0099 20.8447 10.9995 20.5735 10.9995 18.3999C10.9995 16.2263 11.0075 15.9551 11.0475 15.1023C11.0875 14.2495 11.2211 13.6703 11.4195 13.1599C11.6197 12.6256 11.9346 12.1418 12.3419 11.7423C12.7416 11.3353 13.2255 11.0205 13.7595 10.8199C14.2699 10.6215 14.8491 10.4879 15.7019 10.4479C16.5547 10.4103 16.8259 10.3999 18.9995 10.3999Z" fill="white"/>
</svg>
