<svg width="37" height="37" viewBox="0 0 37 37" fill="none" xmlns="http://www.w3.org/2000/svg">
<rect width="36.8" height="36.8" rx="18.4" fill="#83000A"/>
<path d="M18.3999 12C19.0839 12 19.7855 12.0176 20.4655 12.0464L21.2687 12.0848L22.0375 12.1304L22.7575 12.1792L23.4151 12.2304C24.1287 12.285 24.8003 12.5896 25.3115 13.0904C25.8228 13.5913 26.141 14.2564 26.2103 14.9688L26.2423 15.3088L26.3023 16.0368C26.3583 16.7912 26.3999 17.6136 26.3999 18.4C26.3999 19.1864 26.3583 20.0088 26.3023 20.7632L26.2423 21.4912C26.2319 21.608 26.2215 21.7208 26.2103 21.8312C26.141 22.5437 25.8226 23.2089 25.3112 23.7098C24.7998 24.2107 24.1281 24.5152 23.4143 24.5696L22.7583 24.62L22.0383 24.6696L21.2687 24.7152L20.4655 24.7536C19.7774 24.7835 19.0887 24.799 18.3999 24.8C17.7111 24.799 17.0224 24.7835 16.3343 24.7536L15.5311 24.7152L14.7623 24.6696L14.0423 24.62L13.3847 24.5696C12.6711 24.515 11.9995 24.2104 11.4883 23.7096C10.977 23.2087 10.6588 22.5436 10.5895 21.8312L10.5575 21.4912L10.4975 20.7632C10.4363 19.9769 10.4038 19.1887 10.3999 18.4C10.3999 17.6136 10.4415 16.7912 10.4975 16.0368L10.5575 15.3088C10.5679 15.192 10.5783 15.0792 10.5895 14.9688C10.6587 14.2566 10.9769 13.5915 11.488 13.0907C11.9991 12.5898 12.6704 12.2852 13.3839 12.2304L14.0407 12.1792L14.7607 12.1304L15.5303 12.0848L16.3335 12.0464C17.0219 12.0165 17.7109 12.001 18.3999 12ZM18.3999 13.6C17.7399 13.6 17.0607 13.6176 16.3999 13.6448L15.6175 13.6824L14.8663 13.7264L14.1607 13.7744L13.5143 13.8248C13.1746 13.8489 12.8543 13.9925 12.6104 14.2302C12.3664 14.4678 12.2145 14.7842 12.1815 15.1232C12.0879 16.0904 11.9999 17.2944 11.9999 18.4C11.9999 19.5056 12.0879 20.7096 12.1815 21.6768C12.2495 22.3744 12.8031 22.9168 13.5143 22.9752L14.1607 23.0248L14.8663 23.0728L15.6175 23.1176L16.3999 23.1552C17.0607 23.1824 17.7399 23.2 18.3999 23.2C19.0599 23.2 19.7391 23.1824 20.3999 23.1552L21.1823 23.1176L21.9335 23.0736L22.6391 23.0256L23.2855 22.9752C23.6252 22.9511 23.9455 22.8075 24.1894 22.5698C24.4334 22.3322 24.5853 22.0158 24.6183 21.6768C24.7119 20.7096 24.7999 19.5056 24.7999 18.4C24.7999 17.2944 24.7119 16.0904 24.6183 15.1232C24.5853 14.7842 24.4334 14.4678 24.1894 14.2302C23.9455 13.9925 23.6252 13.8489 23.2855 13.8248L22.6391 13.7752L21.9335 13.7272L21.1823 13.6824L20.3999 13.6448C19.7336 13.6161 19.0668 13.6012 18.3999 13.6ZM16.7999 16.46C16.7999 16.3818 16.8189 16.3048 16.8554 16.2356C16.8919 16.1665 16.9447 16.1073 17.0093 16.0632C17.0739 16.0191 17.1483 15.9915 17.2259 15.9827C17.3036 15.9739 17.3823 15.9843 17.4551 16.0128L17.5199 16.0448L20.8799 17.984C20.9468 18.0226 21.0034 18.0768 21.0449 18.1419C21.0864 18.2071 21.1115 18.2813 21.1182 18.3583C21.1249 18.4352 21.1129 18.5127 21.0832 18.584C21.0536 18.6553 21.0072 18.7185 20.9479 18.768L20.8799 18.816L17.5199 20.756C17.4522 20.7952 17.3759 20.8173 17.2977 20.8203C17.2196 20.8233 17.1418 20.8071 17.0713 20.7732C17.0008 20.7393 16.9396 20.6886 16.8932 20.6257C16.8467 20.5627 16.8163 20.4894 16.8047 20.412L16.7999 20.34V16.46Z" fill="white"/>
</svg>
