<svg width="19" height="18" viewBox="0 0 19 18" fill="none" xmlns="http://www.w3.org/2000/svg">
<path d="M10.725 12.9562C10.575 12.8062 10.503 12.625 10.509 12.4125C10.5155 12.2 10.5938 12.0187 10.7437 11.8687L12.8625 9.74998H4.5C4.2875 9.74998 4.10925 9.67798 3.96525 9.53398C3.82175 9.39048 3.75 9.21248 3.75 8.99998C3.75 8.78748 3.82175 8.60923 3.96525 8.46523C4.10925 8.32173 4.2875 8.24998 4.5 8.24998H12.8625L10.725 6.11248C10.575 5.96248 10.5 5.78423 10.5 5.57773C10.5 5.37173 10.575 5.19373 10.725 5.04373C10.875 4.89373 11.0532 4.81873 11.2597 4.81873C11.4657 4.81873 11.6438 4.89373 11.7938 5.04373L15.225 8.47498C15.3 8.54998 15.3533 8.63123 15.3848 8.71873C15.4158 8.80623 15.4313 8.89998 15.4313 8.99998C15.4313 9.09998 15.4158 9.19373 15.3848 9.28123C15.3533 9.36873 15.3 9.44998 15.225 9.52498L11.775 12.975C11.6375 13.1125 11.4657 13.1812 11.2597 13.1812C11.0532 13.1812 10.875 13.1062 10.725 12.9562Z" fill="white"/>
</svg>
