<svg width="24" height="24" viewBox="0 0 24 24" fill="none" xmlns="http://www.w3.org/2000/svg">
<path d="M8.875 21.1L17.3 12.7C17.4 12.6 17.471 12.4917 17.513 12.375C17.555 12.2584 17.5757 12.1334 17.575 12C17.575 11.8667 17.5543 11.7417 17.513 11.625C17.4717 11.5084 17.4007 11.4 17.3 11.3L8.875 2.87502C8.64166 2.64169 8.35 2.52502 8 2.52502C7.65 2.52502 7.35 2.65002 7.1 2.90002C6.85 3.15002 6.725 3.44169 6.725 3.77502C6.725 4.10836 6.85 4.40002 7.1 4.65002L14.45 12L7.1 19.35C6.86666 19.5834 6.75 19.871 6.75 20.213C6.75 20.555 6.875 20.8507 7.125 21.1C7.375 21.35 7.66666 21.475 8 21.475C8.33333 21.475 8.625 21.35 8.875 21.1Z" fill="#666666"/>
</svg>
