<svg width="46" height="46" viewBox="0 0 46 46" fill="none" xmlns="http://www.w3.org/2000/svg">
<rect width="46" height="46" rx="23" fill="#7F58EE"/>
<path d="M21.695 19.937V21.314H20.687V22.997H21.695V28H23.767V22.997H25.157C25.157 22.997 25.288 22.19 25.351 21.307H23.775V20.157C23.775 19.984 24.001 19.753 24.225 19.753H25.353V18H23.818C21.644 18 21.695 19.685 21.695 19.937Z" fill="white"/>
<path d="M17 15C16.4696 15 15.9609 15.2107 15.5858 15.5858C15.2107 15.9609 15 16.4696 15 17V29C15 29.5304 15.2107 30.0391 15.5858 30.4142C15.9609 30.7893 16.4696 31 17 31H29C29.5304 31 30.0391 30.7893 30.4142 30.4142C30.7893 30.0391 31 29.5304 31 29V17C31 16.4696 30.7893 15.9609 30.4142 15.5858C30.0391 15.2107 29.5304 15 29 15H17ZM17 13H29C30.0609 13 31.0783 13.4214 31.8284 14.1716C32.5786 14.9217 33 15.9391 33 17V29C33 30.0609 32.5786 31.0783 31.8284 31.8284C31.0783 32.5786 30.0609 33 29 33H17C15.9391 33 14.9217 32.5786 14.1716 31.8284C13.4214 31.0783 13 30.0609 13 29V17C13 15.9391 13.4214 14.9217 14.1716 14.1716C14.9217 13.4214 15.9391 13 17 13Z" fill="white"/>
</svg>
