<svg width="46" height="46" viewBox="0 0 46 46" fill="none" xmlns="http://www.w3.org/2000/svg">
<rect width="46" height="46" rx="23" fill="#7F58EE"/>
<path d="M23 20C22.2044 20 21.4413 20.3161 20.8787 20.8787C20.3161 21.4413 20 22.2044 20 23C20 23.7956 20.3161 24.5587 20.8787 25.1213C21.4413 25.6839 22.2044 26 23 26C23.7956 26 24.5587 25.6839 25.1213 25.1213C25.6839 24.5587 26 23.7956 26 23C26 22.2044 25.6839 21.4413 25.1213 20.8787C24.5587 20.3161 23.7956 20 23 20ZM23 18C24.3261 18 25.5979 18.5268 26.5355 19.4645C27.4732 20.4021 28 21.6739 28 23C28 24.3261 27.4732 25.5979 26.5355 26.5355C25.5979 27.4732 24.3261 28 23 28C21.6739 28 20.4021 27.4732 19.4645 26.5355C18.5268 25.5979 18 24.3261 18 23C18 21.6739 18.5268 20.4021 19.4645 19.4645C20.4021 18.5268 21.6739 18 23 18ZM29.5 17.75C29.5 18.0815 29.3683 18.3995 29.1339 18.6339C28.8995 18.8683 28.5815 19 28.25 19C27.9185 19 27.6005 18.8683 27.3661 18.6339C27.1317 18.3995 27 18.0815 27 17.75C27 17.4185 27.1317 17.1005 27.3661 16.8661C27.6005 16.6317 27.9185 16.5 28.25 16.5C28.5815 16.5 28.8995 16.6317 29.1339 16.8661C29.3683 17.1005 29.5 17.4185 29.5 17.75ZM23 15C20.526 15 20.122 15.007 18.971 15.058C18.187 15.095 17.661 15.2 17.173 15.39C16.7646 15.5399 16.3954 15.7803 16.093 16.093C15.78 16.3954 15.5394 16.7646 15.389 17.173C15.199 17.663 15.094 18.188 15.058 18.971C15.006 20.075 15 20.461 15 23C15 25.474 15.007 25.878 15.058 27.029C15.095 27.812 15.2 28.339 15.389 28.826C15.559 29.261 15.759 29.574 16.091 29.906C16.428 30.242 16.741 30.443 17.171 30.609C17.665 30.8 18.191 30.906 18.971 30.942C20.075 30.994 20.461 31 23 31C25.474 31 25.878 30.993 27.029 30.942C27.811 30.905 28.338 30.8 28.826 30.611C29.2338 30.4603 29.6027 30.2205 29.906 29.909C30.243 29.572 30.444 29.259 30.61 28.829C30.8 28.336 30.906 27.809 30.942 27.029C30.994 25.925 31 25.539 31 23C31 20.526 30.993 20.122 30.942 18.971C30.905 18.189 30.8 17.661 30.61 17.173C30.4593 16.765 30.2191 16.396 29.907 16.093C29.6047 15.7798 29.2355 15.5392 28.827 15.389C28.337 15.199 27.811 15.094 27.029 15.058C25.925 15.006 25.539 15 23 15ZM23 13C25.717 13 26.056 13.01 27.122 13.06C28.187 13.11 28.912 13.277 29.55 13.525C30.21 13.779 30.766 14.123 31.322 14.678C31.8305 15.1779 32.224 15.7826 32.475 16.45C32.722 17.087 32.89 17.813 32.94 18.878C32.987 19.944 33 20.283 33 23C33 25.717 32.99 26.056 32.94 27.122C32.89 28.187 32.722 28.912 32.475 29.55C32.2247 30.2178 31.8311 30.8226 31.322 31.322C30.822 31.8303 30.2173 32.2238 29.55 32.475C28.913 32.722 28.187 32.89 27.122 32.94C26.056 32.987 25.717 33 23 33C20.283 33 19.944 32.99 18.878 32.94C17.813 32.89 17.088 32.722 16.45 32.475C15.7823 32.2245 15.1775 31.8309 14.678 31.322C14.1694 30.8222 13.7759 30.2175 13.525 29.55C13.277 28.913 13.11 28.187 13.06 27.122C13.013 26.056 13 25.717 13 23C13 20.283 13.01 19.944 13.06 18.878C13.11 17.812 13.277 17.088 13.525 16.45C13.7752 15.7822 14.1688 15.1773 14.678 14.678C15.1777 14.1692 15.7824 13.7757 16.45 13.525C17.088 13.277 17.812 13.11 18.878 13.06C19.944 13.013 20.283 13 23 13Z" fill="white"/>
</svg>
