<svg width="18" height="75" viewBox="0 0 18 75" fill="none" xmlns="http://www.w3.org/2000/svg">
<path d="M11.9102 6.54883L11.9102 7.50586C13.4277 7.4375 14.542 6.125 14.5352 4.26562C14.542 2.41309 13.4414 0.991211 11.8281 0.984375C10.543 0.991211 9.74316 1.90039 9.28516 3.45898L8.94336 4.63477C8.60156 5.83789 8.15039 6.68555 7.16602 6.68555C5.99707 6.68555 5.21777 5.63281 5.21094 4.16992C5.21777 2.86426 5.83984 1.82519 7.00195 1.72266L7.00195 0.724609C5.40918 0.84082 4.3291 2.12598 4.33594 4.16992C4.3291 6.34375 5.5459 7.63574 7.15234 7.62891C8.81348 7.63574 9.46973 6.16602 9.81836 4.92187L10.1055 3.89648C10.3652 2.95996 10.8369 1.93457 11.8691 1.94141C12.9082 1.93457 13.667 2.87109 13.6738 4.23828C13.667 5.52344 12.9971 6.44629 11.9102 6.54883ZM4.34961 12.3047C4.34277 13.8701 5.33398 14.9639 6.67383 15.1621L6.67383 14.2187C5.75781 14.0205 5.19043 13.2686 5.18359 12.3047C5.19043 10.8691 6.4209 9.92578 8.20508 9.92578C9.98242 9.92578 11.1924 10.8965 11.1855 12.3047C11.1924 13.3437 10.5156 14.0342 9.70898 14.2187L9.70898 15.1484C11.0898 14.957 12.0264 13.7949 12.0332 12.291C12.0264 10.3223 10.4199 8.98926 8.17773 8.99609C5.96289 8.98926 4.34277 10.2881 4.34961 12.3047ZM4.5 16.7207L4.5 17.6641L9.27148 17.6641C10.3447 17.6572 11.1377 18.4912 11.1309 19.6328C11.1377 19.8721 11.0967 20.1045 11.0762 20.1797L12.0195 20.1797C12.0264 20.0635 12.0332 19.8516 12.0332 19.7012C12.0332 18.7852 11.5342 17.9854 10.7754 17.6914L10.7754 17.623L11.9238 17.623L11.9238 16.7207L4.5 16.7207ZM4.34961 24.0762C4.34277 26.0176 5.9082 27.3643 8.17773 27.3574C10.4609 27.3643 12.0264 26.0176 12.0332 24.0762C12.0264 22.1279 10.4609 20.7744 8.17773 20.7812C5.9082 20.7744 4.34277 22.1279 4.34961 24.0762ZM8.17773 21.7109C9.80469 21.7109 11.1924 22.5518 11.1855 24.0762C11.1924 25.5937 9.81152 26.4277 8.17773 26.4277C6.55078 26.4277 5.18359 25.5937 5.18359 24.0762C5.18359 22.5449 6.55078 21.7109 8.17773 21.7109ZM14.3984 29.9277L14.3984 28.9844L4.5 28.9844L4.5 29.9277L14.3984 29.9277ZM14.3984 32.8672L14.3984 31.9238L4.5 31.9238L4.5 32.8672L14.3984 32.8672ZM4.5 34.877L4.5 35.8066L11.9238 35.8066L11.9238 34.877L4.5 34.877ZM13.8379 34.6719C13.4756 34.6719 13.1885 34.9795 13.1953 35.3555C13.1885 35.7246 13.4756 36.0322 13.8379 36.0391C14.2002 36.0322 14.4873 35.7246 14.4941 35.3555C14.4873 34.9795 14.2002 34.6719 13.8379 34.6719ZM9.10742 38.7598C10.3926 38.7529 11.1787 39.5869 11.1719 40.7422C11.1787 41.8633 10.4268 42.5742 9.23047 42.5742L4.5 42.5742L4.5 43.5039L9.29883 43.5039C11.0693 43.5039 12.0195 42.4922 12.0195 40.9883C12.0195 39.8945 11.5205 39.1562 10.748 38.8008L10.748 38.7187L11.9238 38.7187L11.9238 37.8164L4.5 37.8164L4.5 38.7598L9.10742 38.7598ZM1.56054 48.3711C1.56054 50.1621 2.42187 51.4678 4.30859 51.4746L11.9238 51.4746L11.9238 50.5586L10.543 50.5586L10.543 50.4766C11.1787 50.1758 12.0264 49.5811 12.0332 48.207C12.0264 46.375 10.543 45.124 8.27344 45.1309C5.99023 45.124 4.58203 46.416 4.58203 48.1934C4.58203 49.54 5.36133 50.1689 6.0039 50.4629L6.0039 50.5449L4.36328 50.5449C3.00976 50.5381 2.38086 49.7246 2.38086 48.3711C2.38086 47.3047 2.77051 46.5186 3.57031 46.3477L3.57031 45.3633C2.26465 45.5342 1.56054 46.7373 1.56054 48.3711ZM8.24609 46.0742C9.89355 46.0674 11.1855 46.8535 11.1855 48.3164C11.1855 49.752 9.96191 50.5586 8.24609 50.5586C6.48926 50.5586 5.42285 49.7314 5.41601 48.3164C5.42285 46.8672 6.57812 46.0674 8.24609 46.0742Z" fill="#666666"/>
<path d="M8.69766 74.3023C8.86464 74.4693 9.13536 74.4693 9.30233 74.3023L12.0233 71.5813C12.1903 71.4143 12.1903 71.1436 12.0233 70.9767C11.8564 70.8097 11.5857 70.8097 11.4187 70.9767L9 73.3953L6.58132 70.9767C6.41435 70.8097 6.14363 70.8097 5.97665 70.9767C5.80968 71.1436 5.80968 71.4143 5.97665 71.5813L8.69766 74.3023ZM8.57243 61L8.57243 74L9.42757 74L9.42757 61L8.57243 61Z" fill="#666666"/>
</svg>
