<svg width="46" height="46" viewBox="0 0 46 46" fill="none" xmlns="http://www.w3.org/2000/svg">
<rect width="46" height="46" rx="23" fill="#555555"/>
<path d="M23 15C23.855 15 24.732 15.022 25.582 15.058L26.586 15.106L27.547 15.163L28.447 15.224L29.269 15.288C30.161 15.3563 31.0004 15.7369 31.6395 16.363C32.2786 16.9891 32.6764 17.8205 32.763 18.711L32.803 19.136L32.878 20.046C32.948 20.989 33 22.017 33 23C33 23.983 32.948 25.011 32.878 25.954L32.803 26.864C32.79 27.01 32.777 27.151 32.763 27.289C32.6764 28.1796 32.2784 29.0112 31.6391 29.6373C30.9999 30.2634 30.1602 30.6439 29.268 30.712L28.448 30.775L27.548 30.837L26.586 30.894L25.582 30.942C24.7218 30.9794 23.861 30.9987 23 31C22.139 30.9987 21.2782 30.9794 20.418 30.942L19.414 30.894L18.453 30.837L17.553 30.775L16.731 30.712C15.839 30.6437 14.9996 30.2631 14.3605 29.637C13.7214 29.0109 13.3236 28.1795 13.237 27.289L13.197 26.864L13.122 25.954C13.0455 24.9711 13.0048 23.9858 13 23C13 22.017 13.052 20.989 13.122 20.046L13.197 19.136C13.21 18.99 13.223 18.849 13.237 18.711C13.3235 17.8207 13.7212 16.9894 14.3601 16.3633C14.999 15.7373 15.8381 15.3565 16.73 15.288L17.551 15.224L18.451 15.163L19.413 15.106L20.417 15.058C21.2775 15.0206 22.1387 15.0013 23 15ZM23 17C22.175 17 21.326 17.022 20.5 17.056L19.522 17.103L18.583 17.158L17.701 17.218L16.893 17.281C16.4683 17.3111 16.068 17.4906 15.7631 17.7877C15.4581 18.0848 15.2682 18.4803 15.227 18.904C15.11 20.113 15 21.618 15 23C15 24.382 15.11 25.887 15.227 27.096C15.312 27.968 16.004 28.646 16.893 28.719L17.701 28.781L18.583 28.841L19.522 28.897L20.5 28.944C21.326 28.978 22.175 29 23 29C23.825 29 24.674 28.978 25.5 28.944L26.478 28.897L27.417 28.842L28.299 28.782L29.107 28.719C29.5317 28.6889 29.932 28.5094 30.2369 28.2123C30.5419 27.9152 30.7318 27.5197 30.773 27.096C30.89 25.887 31 24.382 31 23C31 21.618 30.89 20.113 30.773 18.904C30.7318 18.4803 30.5419 18.0848 30.2369 17.7877C29.932 17.4906 29.5317 17.3111 29.107 17.281L28.299 17.219L27.417 17.159L26.478 17.103L25.5 17.056C24.6671 17.0202 23.8336 17.0015 23 17ZM21 20.575C20.9999 20.4773 21.0237 20.381 21.0694 20.2946C21.115 20.2081 21.181 20.1341 21.2618 20.079C21.3425 20.0239 21.4354 19.9894 21.5326 19.9784C21.6297 19.9674 21.728 19.9803 21.819 20.016L21.9 20.056L26.1 22.48C26.1836 22.5283 26.2544 22.596 26.3063 22.6774C26.3581 22.7589 26.3896 22.8517 26.3979 22.9478C26.4062 23.044 26.3912 23.1408 26.3542 23.23C26.3171 23.3192 26.2591 23.3981 26.185 23.46L26.1 23.52L21.9 25.945C21.8154 25.994 21.72 26.0216 21.6223 26.0253C21.5246 26.0291 21.4274 26.0089 21.3393 25.9665C21.2511 25.9241 21.1747 25.8608 21.1166 25.7821C21.0585 25.7034 21.0205 25.6117 21.006 25.515L21 25.425V20.575Z" fill="white"/>
</svg>
