<svg width="12" height="16" viewBox="0 0 12 16" fill="none" xmlns="http://www.w3.org/2000/svg">
<path d="M0.299903 9.3C0.499903 9.1 0.74157 9.004 1.0249 9.012C1.30824 9.02067 1.5499 9.125 1.7499 9.325L4.5749 12.15L4.5749 1C4.5749 0.716667 4.6709 0.479 4.8629 0.287C5.05424 0.0956668 5.29157 0 5.5749 0C5.85824 0 6.0959 0.0956668 6.2879 0.287C6.47924 0.479 6.5749 0.716667 6.5749 1L6.5749 12.15L9.4249 9.3C9.6249 9.1 9.86257 9 10.1379 9C10.4126 9 10.6499 9.1 10.8499 9.3C11.0499 9.5 11.1499 9.73767 11.1499 10.013C11.1499 10.2877 11.0499 10.525 10.8499 10.725L6.2749 15.3C6.1749 15.4 6.06657 15.471 5.9499 15.513C5.83324 15.5543 5.70824 15.575 5.5749 15.575C5.44157 15.575 5.31657 15.5543 5.1999 15.513C5.08324 15.471 4.9749 15.4 4.8749 15.3L0.274903 10.7C0.0915699 10.5167 -9.82285e-05 10.2877 -9.82285e-05 10.013C-9.82285e-05 9.73767 0.0999031 9.5 0.299903 9.3Z" fill="#D9D9D9"/>
</svg>
